<?xml version="1.0" encoding="utf-8" ?><svg xmlns="http://www.w3.org/2000/svg" xmlns:xlink="http://www.w3.org/1999/xlink" width="64" height="64" viewBox="0 0 64 64"><path transform="scale(0.0625 0.0625)" d="M431.589 448.187C437.907 447.639 453.278 448.083 460.272 448.081L518.663 448.064L568.678 448.039C574.779 448.038 589.607 447.704 594.883 448.623C596.6 451.778 595.941 466.504 596.262 471.336C597.358 487.786 598.821 504.182 601.063 520.504C605.567 551.112 612.403 581.331 621.511 610.898C630.556 641.143 647.395 689.668 673.846 710.02C686.172 719.504 708.815 718.419 712.818 733.555C707.802 746.654 693.473 746.231 685.931 755.441C668.221 777.066 684.892 801.8 706.762 811.079C719.607 816.529 735.866 820.959 735.612 836.74C735.444 847.165 735.655 857.929 735.642 868.385C736.027 890.102 725.068 888.109 708.502 887.968C700.506 887.898 692.509 887.875 684.513 887.899L594.625 887.935L388.759 887.885C376.199 887.894 304.231 889.043 298.99 887.04C295.289 885.626 291.99 882.568 290.555 878.835C288.133 872.534 289.385 859.805 289.397 852.957C289.408 845.961 288.411 836.708 290.597 830.01C292.051 825.557 296.458 821.408 300.429 819.135C304.566 816.767 309.658 815.309 314.067 813.431C325.754 808.454 338.903 800.346 344.263 788.259C346.639 782.9 347.325 777.006 346.878 771.195C344.832 744.634 319.013 750.464 314.209 736.426C313.488 734.32 313.395 731.667 314.453 729.651C318.47 721.997 332.664 719.163 340.131 716.504C347.385 713.92 354.35 709.734 359.755 704.215C394.796 668.432 421.216 557.26 427.163 507.017C428.46 496.059 429.494 484.921 430.064 473.901C430.464 466.175 430.442 458.411 430.962 450.693C431.028 449.715 431.172 449.071 431.589 448.187Z"/><path transform="scale(0.0625 0.0625)" d="M352.364 242.908C339.256 236.929 329.233 226.723 324.225 213.119C319.169 199.655 319.827 184.71 326.047 171.742C338.669 145.224 370.815 132.744 397.408 146.069C405.209 150.007 411.874 155.873 416.771 163.111C425.129 175.229 428.311 195.31 448.339 189.656C459.115 186.614 453.312 174.705 452.937 167.154C451.635 140.916 466.908 115.824 491.508 106.071C506.143 100.322 522.463 100.621 536.878 106.901C551.604 113.491 563.052 125.737 568.637 140.873C574.037 155.414 573.495 167.337 570.995 182.193C572.813 185.401 575.178 189.119 579.227 189.972C598.734 194.084 601.53 174.467 608.971 163.828C643.1 115.031 716.419 150.522 703.125 207.754C699.923 220.991 691.646 232.439 680.079 239.628C673.422 243.692 668.125 244.877 661.149 247.425C645.097 267.008 634.64 286.892 627.909 311.287C626.217 317.417 625.11 323.508 623.506 329.578C586.658 330.039 549.344 329.534 512.427 329.696L440.139 329.714C428.051 329.688 414.698 329.95 402.759 329.576C397.125 304.448 389.203 281.566 374.665 260.022C371.825 255.813 368.067 250.362 364.053 247.238C363.784 243.969 355.234 242.421 353.217 242.777L352.364 242.908Z"/><path transform="scale(0.0625 0.0625)" d="M406.87 355.215C410.566 354.594 418.482 354.991 422.582 355.001L451.653 355.084L540.735 355.272C557.875 355.379 575.015 355.391 592.155 355.308C611.444 355.247 633.525 353.009 649.827 364.82C663.481 374.712 668.025 393.07 656.626 406.452C648.666 415.798 632.35 419.632 620.624 420.57C609.448 421.448 590.037 420.835 578.322 420.819L505.234 420.945L440.124 420.936C425.987 420.929 413.439 421.107 398.781 419.97C373.448 418.005 349.826 395.526 369.295 370.668C377.868 359.722 393.292 356.432 406.87 355.215Z"/><path transform="scale(0.0625 0.0625)" d="M352.364 242.908L353.217 242.777C355.234 242.421 363.784 243.969 364.053 247.238C360.057 245.793 356.188 245.015 352.364 242.908Z"/></svg>